<svg width="19" height="18" viewBox="0 0 19 18" fill="none" xmlns="http://www.w3.org/2000/svg">
<path d="M18.4397 17.0061C18.4397 17.5583 17.998 18 17.4458 18H12.8579V11.0329H15.197L15.5484 8.31233H12.8579V6.57557C12.8579 5.79253 13.0788 5.25042 14.2032 5.25042H15.6388V2.82097C15.3878 2.79085 14.5345 2.71054 13.5406 2.71054C11.4625 2.71054 10.0469 3.97546 10.0469 6.30452V8.31233H7.70782V11.0329H10.057V18H1.43333C0.881177 18 0.439453 17.5482 0.439453 17.0061V0.993865C0.439453 0.441718 0.881177 0 1.43333 0H17.4458C17.998 0 18.4397 0.441718 18.4397 0.993865V17.0061Z" fill="#373F48"/>
</svg>
