<svg width="19" height="18" viewBox="0 0 19 18" fill="none" xmlns="http://www.w3.org/2000/svg">
<rect width="19" height="18" fill="#E5E5E5"/>
<g id="MTD Services D" clip-path="url(#clip0_0_1)">
<rect width="1366" height="1349" transform="translate(-436 -1053)" fill="white"/>
<g id="footer">
<g id="col">
<g id="Frame" clip-path="url(#clip1_0_1)">
<g id="Group">
<g id="Group_2">
<path id="Vector" d="M13.0845 0H5.80461C2.8428 0 0.439453 2.40335 0.439453 5.35978V12.6402C0.439453 15.5966 2.8428 18 5.80461 18H13.0845C16.0463 18 18.4496 15.5966 18.4496 12.6402V5.35978C18.4396 2.40335 16.0363 0 13.0845 0ZM16.6346 12.6402C16.6346 14.6011 15.049 16.1899 13.0845 16.1899H5.80461C3.84004 16.1899 2.25443 14.6011 2.25443 12.6402V5.35978C2.25443 3.39888 3.84004 1.81006 5.80461 1.81006H13.0845C15.049 1.81006 16.6346 3.39888 16.6346 5.35978V12.6402Z" fill="#373F48"/>
<path id="Vector_2" d="M9.44422 4.34413C6.88131 4.34413 4.78711 6.43575 4.78711 9C4.78711 11.5642 6.87134 13.6559 9.44422 13.6559C12.0171 13.6559 14.1013 11.5642 14.1013 9C14.1013 6.43575 12.0071 4.34413 9.44422 4.34413ZM9.44422 11.8458C7.86858 11.8458 6.60209 10.5687 6.60209 9C6.60209 7.43128 7.87855 6.15419 9.44422 6.15419C11.0199 6.15419 12.2864 7.43128 12.2864 9C12.2864 10.5687 11.0099 11.8458 9.44422 11.8458Z" fill="#373F48"/>
<path id="Vector_3" d="M14.112 5.50051C14.7289 5.50051 15.2289 5.00077 15.2289 4.38431C15.2289 3.76785 14.7289 3.26811 14.112 3.26811C13.4952 3.26811 12.9951 3.76785 12.9951 4.38431C12.9951 5.00077 13.4952 5.50051 14.112 5.50051Z" fill="#373F48"/>
</g>
</g>
</g>
</g>
</g>
</g>
<defs>
<clipPath id="clip0_0_1">
<rect width="1366" height="1349" fill="white" transform="translate(-436 -1053)"/>
</clipPath>
<clipPath id="clip1_0_1">
<rect width="18.0002" height="18" fill="white" transform="translate(0.439453)"/>
</clipPath>
</defs>
</svg>
