<svg width="151" height="24" viewBox="0 0 151 24" fill="none" xmlns="http://www.w3.org/2000/svg">
<rect width="151" height="24" fill="#E5E5E5"/>
<g id="MTD Services D" clip-path="url(#clip0_0_1)">
<rect width="1366" height="1349" transform="translate(-59 -25)" fill="white"/>
<g id="nav black 3">
<rect width="1366" height="81.75" transform="translate(-59 -25)" fill="white"/>
<g id="Rectangle" style="mix-blend-mode:multiply">
<rect x="-59" y="-27.625" width="1366" height="84.375" fill="#373F48"/>
</g>
<g id="logo">
<g id="Frame" clip-path="url(#clip1_0_1)">
<g id="Group">
<g id="Group_2">
<path id="Vector" d="M46.8112 23.6299C46.1147 23.5847 45.201 23.5588 44.0828 23.5588C43.0093 23.5588 42.0828 23.5847 41.3096 23.6299C41.3096 23.2613 41.3544 22.9315 41.4438 22.6405C42.0189 22.5823 42.4087 22.4465 42.6068 22.246C42.8048 22.0455 42.9007 21.6769 42.9007 21.1402C42.9007 20.8362 42.8751 20.4482 42.8304 19.9891L42.0125 12.0929L37.3032 23.6041C37.0476 23.714 36.7345 23.7657 36.3703 23.7657L31.0732 12.1188L30.3448 19.504C30.3 19.9632 30.2745 20.3641 30.2745 20.7004C30.2745 21.4053 30.3895 21.8968 30.6259 22.1619C30.8623 22.4336 31.2585 22.5888 31.8208 22.634C31.8975 22.8927 31.9358 23.2225 31.9358 23.6235C31.2074 23.5782 30.3959 23.5523 29.5013 23.5523C28.6068 23.5523 27.8464 23.5782 27.2266 23.6235C27.2266 23.2225 27.2649 22.8927 27.3416 22.634C27.7633 22.5888 28.0892 22.4788 28.3192 22.3107C28.5492 22.1425 28.7218 21.8321 28.856 21.3794C28.9838 20.9268 29.0924 20.2348 29.1882 19.2971L29.9167 11.1035C29.9294 10.9677 29.9422 10.7801 29.9422 10.5538C29.9422 9.95237 29.8208 9.53202 29.578 9.28628C29.3352 9.04054 28.939 8.91766 28.3959 8.91766C28.3192 8.67192 28.2809 8.34211 28.2809 7.92822C28.7345 7.97349 29.3096 7.99936 30.0125 7.99936C30.5748 7.99936 31.1499 7.97349 31.7441 7.92822L37.431 20.6551L42.3895 7.92822C42.9071 7.97349 43.4949 7.99936 44.1659 7.99936C44.709 7.99936 45.2905 7.97349 45.8975 7.92822C45.8975 8.29684 45.8592 8.62665 45.7825 8.91766C45.2649 8.91766 44.8751 9.047 44.6131 9.31215C44.3448 9.57082 44.217 10.0235 44.217 10.6702C44.217 10.9159 44.2234 11.11 44.2425 11.2458L45.0604 19.6916C45.1371 20.4611 45.233 21.0432 45.3544 21.4506C45.4758 21.858 45.6419 22.1425 45.8528 22.3107C46.0636 22.4788 46.3512 22.5823 46.7154 22.6082C46.7729 22.8733 46.8112 23.2161 46.8112 23.6299Z" fill="white"/>
<path id="Vector_2" d="M63.0477 23.63C62.134 23.5847 61.2714 23.5588 60.4535 23.5588C59.6484 23.5588 58.7921 23.5847 57.8848 23.63C57.8848 23.1837 57.9359 22.8539 58.0445 22.6405C58.4663 22.5953 58.7666 22.5241 58.9391 22.4336C59.1116 22.343 59.2011 22.1878 59.2011 21.9744C59.2011 21.7869 59.0861 21.4118 58.8624 20.8492L57.8592 18.5017C55.4503 18.5017 53.4439 18.534 51.8528 18.5922L51.2394 20.1831C50.9966 20.8298 50.8752 21.3342 50.8752 21.7028C50.8752 22.0132 50.971 22.2331 51.1627 22.3819C51.3544 22.5306 51.6548 22.6147 52.0637 22.647C52.1723 22.9057 52.2234 23.2355 52.2234 23.6364C51.7059 23.5912 50.9902 23.5653 50.0637 23.5653C49.6675 23.5653 49.0413 23.5912 48.1787 23.6364C48.1787 23.2549 48.2298 22.9315 48.3385 22.6729C48.7346 22.5953 49.0413 22.3948 49.2714 22.0714C49.5014 21.7481 49.7953 21.1208 50.1595 20.1831L54.8688 7.96059C55.1244 7.90239 55.4247 7.87006 55.757 7.87006L61.1691 20.4353C61.5461 21.2954 61.8465 21.8645 62.0637 22.1361C62.2873 22.4142 62.5685 22.5823 62.9135 22.6405C63.003 22.9445 63.0477 23.2743 63.0477 23.63ZM57.4311 17.4605L55.6995 13.3605C55.2458 12.2999 54.9135 11.4657 54.6963 10.8513C54.5302 11.3751 54.2426 12.2029 53.8337 13.3346L52.2618 17.454H57.4311V17.4605Z" fill="white"/>
<path id="Vector_3" d="M67.5142 22.7504C66.3832 22.0779 65.5078 21.1143 64.888 19.8726C64.2682 18.631 63.9551 17.1953 63.9551 15.5657C63.9551 13.9231 64.3257 12.5133 65.0669 11.3428C65.8081 10.1658 66.7857 9.27981 67.987 8.68485C69.1947 8.08343 70.479 7.78595 71.8401 7.78595C72.9008 7.78595 73.904 7.88295 74.8433 8.07049C75.7826 8.2645 76.6004 8.52965 77.2969 8.86593C77.1308 9.73896 77.0477 10.9289 77.0477 12.4357C76.6835 12.5715 76.281 12.6426 75.8401 12.6426C75.7953 11.1552 75.4439 10.1334 74.7857 9.57082C74.1276 9.0082 73.2075 8.73012 72.0254 8.73012C70.7794 8.73012 69.7378 9.02113 68.888 9.60316C68.0381 10.1852 67.4056 10.9547 66.9902 11.9183C66.5749 12.8754 66.364 13.9231 66.364 15.0612C66.364 16.4904 66.5749 17.7709 66.9902 18.9155C67.4056 20.0602 68.0254 20.9656 68.856 21.6316C69.6803 22.2977 70.6963 22.634 71.8912 22.634C72.3768 22.634 72.7921 22.6082 73.1436 22.5564C73.495 22.5047 73.8401 22.4077 74.1915 22.2719C74.479 22.149 74.6771 21.9679 74.7921 21.7287C74.9072 21.4894 74.9647 21.0949 74.9647 20.5452V19.3941C74.9647 18.6569 74.9199 18.1395 74.8369 17.842C74.7538 17.5445 74.5813 17.3441 74.3257 17.2535C74.0701 17.163 73.6292 17.1113 73.0094 17.0919C72.9199 16.8591 72.8752 16.5098 72.8752 16.0313C73.4503 16.0766 74.3768 16.1024 75.6484 16.1024C76.7857 16.1024 77.6739 16.0895 78.3065 16.0572C78.3065 16.5034 78.2618 16.8461 78.1723 17.0919C77.8401 17.1048 77.6036 17.163 77.4695 17.2665C77.3353 17.3635 77.2394 17.5704 77.1819 17.8744C77.1308 18.1783 77.1052 18.6892 77.1052 19.3941V20.4288C77.1052 20.7845 77.1244 21.082 77.1627 21.3406C77.2011 21.5928 77.2778 21.8257 77.3992 22.0391C76.7027 22.5629 75.8401 22.9768 74.8177 23.2936C73.7953 23.6105 72.6707 23.7657 71.4375 23.7657C69.9551 23.7657 68.6452 23.4295 67.5142 22.7504Z" fill="white"/>
<path id="Vector_4" d="M92.5175 20.1766C92.2299 21.082 91.9935 22.2266 91.8146 23.6041C90.6325 23.5717 89.0095 23.5588 86.9456 23.5588C84.1533 23.5588 82.1916 23.5847 81.0542 23.6299C81.0542 23.1837 81.0926 22.8539 81.1693 22.6405C81.591 22.6082 81.9169 22.5306 82.1341 22.4077C82.3514 22.2848 82.5111 22.0714 82.6006 21.761C82.69 21.4506 82.7348 20.9914 82.7348 20.3771V10.9224C82.7348 10.1529 82.6261 9.6355 82.4025 9.37035C82.1852 9.09874 81.7699 8.95 81.1629 8.92413C81.0862 8.71072 81.0479 8.38091 81.0479 7.93469C81.9424 7.97996 83.214 8.00583 84.8689 8.00583C87.6293 8.00583 89.7571 7.97996 91.2587 7.93469C91.4121 9.62256 91.5718 10.8319 91.7379 11.5691C91.5079 11.7502 91.1693 11.8472 90.7156 11.8472C90.6389 10.9871 90.3322 10.2887 89.7954 9.73897C89.2587 9.19574 88.3194 8.92413 86.9839 8.92413H84.8689V15.2294H86.3002C87.2523 15.2294 87.9105 15.1001 88.2683 14.8478C88.6261 14.5956 88.8114 14.0977 88.8242 13.3604C89.1884 13.2505 89.5526 13.1988 89.9169 13.1988C89.8849 13.7226 89.8721 14.5568 89.8721 15.7079C89.8721 16.969 89.8849 17.855 89.9169 18.3788C89.5079 18.3788 89.1565 18.34 88.8689 18.2624C88.805 17.467 88.6006 16.9237 88.2427 16.6392C87.8849 16.3546 87.2395 16.2124 86.3002 16.2124H84.8689V20.3771C84.8689 20.9591 84.92 21.3988 85.0287 21.7028C85.1373 22.0003 85.3354 22.2137 85.6293 22.3366C85.9232 22.4594 86.3641 22.5241 86.9392 22.5241H87.0734C88.1213 22.5241 88.9264 22.4142 89.4823 22.2007C90.0446 21.9873 90.4536 21.6899 90.722 21.3018C90.9839 20.9203 91.2459 20.3577 91.5079 19.6204C91.9616 19.7627 92.2938 19.9438 92.5175 20.1766Z" fill="white"/>
<path id="Vector_5" d="M102.728 22.246C103.214 22.0649 103.597 21.7739 103.891 21.373C104.178 20.972 104.46 20.39 104.734 19.6204C105.175 19.7562 105.508 19.9438 105.738 20.1766C105.45 21.082 105.214 22.2266 105.035 23.6041C103.853 23.5717 102.383 23.5588 100.626 23.5588C97.8334 23.5588 95.8718 23.5847 94.7344 23.6299C94.7344 23.1837 94.7727 22.8539 94.8494 22.6405C95.2711 22.6082 95.597 22.5306 95.8142 22.4077C96.0315 22.2848 96.1912 22.0649 96.2935 21.7545C96.3893 21.4377 96.4404 20.985 96.4404 20.3835V10.9224C96.4404 10.1529 96.3318 9.6355 96.1082 9.37035C95.8909 9.09874 95.4756 8.95 94.8686 8.92413C94.7919 8.71072 94.7535 8.38091 94.7535 7.93469C95.6289 7.97996 96.5491 8.00583 97.5075 8.00583C98.4341 8.00583 99.3478 7.97996 100.262 7.93469C100.262 8.38091 100.223 8.71072 100.147 8.92413C99.7248 8.95647 99.3989 9.0276 99.1817 9.14401C98.9644 9.26041 98.8047 9.46089 98.7152 9.7519C98.6257 10.0429 98.581 10.4568 98.581 10.9936V20.3835C98.581 20.985 98.6321 21.4247 98.7408 21.7157C98.8494 22.0067 99.0411 22.2137 99.335 22.3366C99.6226 22.4594 100.057 22.5241 100.632 22.5241H100.766C101.584 22.5241 102.242 22.4336 102.728 22.246Z" fill="white"/>
<path id="Vector_6" d="M115.463 22.246C115.949 22.0649 116.332 21.7739 116.626 21.373C116.914 20.972 117.195 20.39 117.47 19.6204C117.911 19.7562 118.243 19.9438 118.473 20.1766C118.185 21.082 117.949 22.2266 117.77 23.6041C116.588 23.5717 115.118 23.5588 113.361 23.5588C110.569 23.5588 108.607 23.5847 107.47 23.6299C107.47 23.1837 107.508 22.8539 107.585 22.6405C108.006 22.6082 108.332 22.5306 108.55 22.4077C108.767 22.2848 108.927 22.0649 109.029 21.7545C109.125 21.4377 109.176 20.985 109.176 20.3835V10.9224C109.176 10.1529 109.067 9.6355 108.844 9.37035C108.626 9.09874 108.211 8.95 107.604 8.92413C107.527 8.71072 107.489 8.38091 107.489 7.93469C108.364 7.97996 109.284 8.00583 110.243 8.00583C111.169 8.00583 112.083 7.97996 112.997 7.93469C112.997 8.38091 112.959 8.71072 112.882 8.92413C112.46 8.95647 112.134 9.0276 111.917 9.14401C111.7 9.26041 111.54 9.46089 111.451 9.7519C111.361 10.0429 111.316 10.4568 111.316 10.9936V20.3835C111.316 20.985 111.367 21.4247 111.476 21.7157C111.585 22.0067 111.776 22.2137 112.07 22.3366C112.358 22.4594 112.792 22.5241 113.367 22.5241H113.502C114.32 22.5241 114.978 22.4336 115.463 22.246Z" fill="white"/>
<path id="Vector_7" d="M134.364 23.63C133.457 23.5847 132.588 23.5588 131.77 23.5588C130.965 23.5588 130.109 23.5847 129.201 23.63C129.201 23.1837 129.252 22.8539 129.361 22.6405C129.783 22.5953 130.083 22.5241 130.262 22.4336C130.434 22.343 130.524 22.1878 130.524 21.9744C130.524 21.7869 130.409 21.4118 130.185 20.8492L129.182 18.5017C126.773 18.5017 124.773 18.534 123.176 18.5922L122.562 20.1831C122.319 20.8298 122.198 21.3342 122.198 21.7028C122.198 22.0132 122.294 22.2331 122.479 22.3819C122.671 22.5306 122.971 22.6147 123.38 22.647C123.489 22.9057 123.54 23.2355 123.54 23.6364C123.022 23.5912 122.307 23.5653 121.38 23.5653C120.984 23.5653 120.358 23.5912 119.495 23.6364C119.495 23.2549 119.546 22.9315 119.655 22.6729C120.051 22.5953 120.358 22.3948 120.588 22.0714C120.818 21.7481 121.112 21.1208 121.476 20.1831L126.185 7.96059C126.441 7.90239 126.741 7.87006 127.073 7.87006L132.486 20.4353C132.863 21.2954 133.163 21.8645 133.386 22.1361C133.604 22.4142 133.891 22.5823 134.236 22.6405C134.319 22.9445 134.364 23.2743 134.364 23.63ZM128.748 17.4605L127.022 13.3605C126.569 12.2999 126.236 11.4657 126.019 10.8513C125.853 11.3751 125.565 12.2029 125.156 13.3346L123.585 17.454H128.748V17.4605Z" fill="white"/>
<path id="Vector_8" d="M150.875 7.92822C150.875 8.30977 150.837 8.63959 150.76 8.91766C150.409 8.91766 150.14 9.01467 149.955 9.21514C149.763 9.41562 149.629 9.74543 149.546 10.2175C149.463 10.6831 149.418 11.3428 149.418 12.1835V23.5523C149.175 23.6429 148.849 23.6881 148.441 23.6881L139.048 11.2846V19.2454C139.048 20.1378 139.092 20.8168 139.182 21.2954C139.271 21.7739 139.431 22.1102 139.661 22.3171C139.891 22.5241 140.204 22.6276 140.613 22.6276C140.69 22.8604 140.728 23.1902 140.728 23.617C140.044 23.5717 139.297 23.5459 138.479 23.5459C137.54 23.5459 136.779 23.5717 136.204 23.617C136.204 23.1902 136.242 22.8604 136.319 22.6276C136.728 22.6276 137.048 22.5241 137.278 22.3171C137.508 22.1102 137.667 21.7675 137.757 21.2954C137.846 20.8233 137.891 20.1378 137.891 19.2454V9.7519L137.802 9.63549C137.591 9.37682 137.386 9.19574 137.201 9.1052C137.009 9.01467 136.722 8.95 136.326 8.91766C136.249 8.63959 136.21 8.30977 136.21 7.92822C136.664 7.97349 137.226 7.99936 137.891 7.99936C138.498 7.99936 139.003 7.97349 139.412 7.92822L148.255 19.8015V12.1899C148.255 11.3298 148.21 10.6702 148.121 10.211C148.032 9.7519 147.872 9.42208 147.642 9.22161C147.412 9.02113 147.099 8.92413 146.69 8.92413C146.613 8.47791 146.575 8.1481 146.575 7.93469C147.226 7.97996 147.942 8.00583 148.715 8.00583C149.533 7.99936 150.255 7.97349 150.875 7.92822Z" fill="white"/>
</g>
<g id="Group_3">
<path id="Vector_9" d="M0.938898 23.7658H17.6993C12.0507 22.0068 6.75359 19.3294 1.94209 15.8826L1.9357 15.8955C1.24561 18.3335 0.875 20.9203 0.875 23.6041C0.875 23.6558 0.875 23.714 0.875 23.7658H0.938898Z" fill="#C8925C"/>
</g>
<g id="Group_4">
<path id="Vector_10" d="M17.7633 21.3924C18.7409 18.049 19.2712 14.4857 19.2712 10.7866C19.2712 7.08753 18.7409 3.52425 17.7633 0.180847L3.08594 14.0136C8.30639 15.7274 13.2201 18.2236 17.7121 21.3924V21.3794L17.7633 21.3924Z" fill="#EAC55E"/>
</g>
</g>
</g>
</g>
</g>
</g>
<defs>
<clipPath id="clip0_0_1">
<rect width="1366" height="1349" fill="white" transform="translate(-59 -25)"/>
</clipPath>
<clipPath id="clip1_0_1">
<rect width="150" height="23.5849" fill="white" transform="translate(0.875 0.180847)"/>
</clipPath>
</defs>
</svg>
