<svg width="22" height="18" viewBox="0 0 22 18" fill="none" xmlns="http://www.w3.org/2000/svg">
<path d="M20.8545 0.330709C20.0163 0.850394 19.0978 1.22835 18.1219 1.42913C17.3411 0.555118 16.2159 0 14.9759 0C12.5992 0 10.6703 2.0315 10.6703 4.54724C10.6703 4.90157 10.7048 5.24409 10.7851 5.58661C7.20287 5.38583 4.02246 3.57874 1.89836 0.826772C1.53095 1.5 1.32428 2.27953 1.32428 3.11811C1.32428 4.68898 2.08206 6.08268 3.24171 6.89764C2.54133 6.87402 1.87539 6.67323 1.28983 6.33071V6.38976C1.28983 8.58661 2.77096 10.4291 4.7458 10.8425C4.37839 10.9488 3.99949 11.0079 3.60912 11.0079C3.33356 11.0079 3.058 10.9843 2.79392 10.9252C3.34504 12.7323 4.9295 14.0433 6.81249 14.0787C5.34284 15.2953 3.48282 16.0276 1.46206 16.0276C1.11761 16.0276 0.773159 16.0039 0.428711 15.9685C2.33466 17.2559 4.59654 18.0118 7.03064 18.0118C14.953 18.0118 19.293 11.0906 19.293 5.07874C19.293 4.87795 19.293 4.68898 19.2815 4.48819C20.1197 3.85039 20.8545 3.04724 21.4286 2.13779C20.6593 2.50394 19.8212 2.74016 18.96 2.85827C19.8556 2.27953 20.533 1.3937 20.8545 0.330709Z" fill="#373F48"/>
</svg>
